<?xml version="1.0" encoding="UTF-8"?>
<svg xmlns="http://www.w3.org/2000/svg" width="3400" height="2140" viewBox="0 0 3400 2140" role="img" aria-labelledby="title desc">
<title id="title">Profile class diagram</title>
<desc id="desc">Profile-focused class diagram showing feedback, summarize, synthetic-data, and context-aware session operations as profile-scoped APIs.</desc>
<defs>
  <marker id="arrow" markerWidth="12" markerHeight="12" refX="10" refY="6" orient="auto" markerUnits="strokeWidth">
    <path d="M0,0 L12,6 L0,12 z" fill="#1f2937"/>
  </marker>
  <marker id="triangle" markerWidth="14" markerHeight="14" refX="12" refY="7" orient="auto" markerUnits="strokeWidth">
    <path d="M12,7 L1,13 L1,1 z" fill="#ffffff" stroke="#1f2937" stroke-width="1.8"/>
  </marker>
  <marker id="diamond" markerWidth="18" markerHeight="14" refX="2" refY="7" orient="auto" markerUnits="strokeWidth">
    <path d="M2,7 L9,2 L16,7 L9,12 z" fill="#ffffff" stroke="#1f2937" stroke-width="1.7"/>
  </marker>
  <marker id="blackdiamond" markerWidth="18" markerHeight="14" refX="2" refY="7" orient="auto" markerUnits="strokeWidth">
    <path d="M2,7 L9,2 L16,7 L9,12 z" fill="#1f2937" stroke="#1f2937" stroke-width="1.7"/>
  </marker>
  <style>
    .bg{fill:#ffffff}
    .title{font:700 34px Arial,Helvetica,sans-serif;fill:#111827}
    .subtitle{font:18px Arial,Helvetica,sans-serif;fill:#4b5563}
    .box{fill:#f8fafc;stroke:#334155;stroke-width:2.4}
    .header{fill:#e2e8f0;stroke:#334155;stroke-width:2.4}
    .name{font:700 23px Arial,Helvetica,sans-serif;fill:#0f172a}
    .stereo{font:600 17px Arial,Helvetica,sans-serif;fill:#475569}
    .member{font:18px Menlo,Consolas,monospace;fill:#111827}
    .small{font:16px Menlo,Consolas,monospace;fill:#111827}
    .section{stroke:#94a3b8;stroke-width:1.5}
    .dep{stroke:#1f2937;stroke-width:2.4;fill:none;stroke-dasharray:10 7;marker-end:url(#arrow)}
    .impl{stroke:#1f2937;stroke-width:2.4;fill:none;stroke-dasharray:10 7;marker-end:url(#triangle)}
    .assoc{stroke:#1f2937;stroke-width:2.4;fill:none;marker-start:url(#diamond);marker-end:url(#arrow)}
    .comp{stroke:#1f2937;stroke-width:2.4;fill:none;marker-start:url(#blackdiamond);marker-end:url(#arrow)}
    .inherit{stroke:#1f2937;stroke-width:2.4;fill:none;marker-end:url(#triangle)}
    .labelBox{fill:#ffffff;stroke:#cbd5e1;stroke-width:1.2}
    .label{font:16px Arial,Helvetica,sans-serif;fill:#374151}
    .noteBox{fill:#fff7ed;stroke:#ea580c;stroke-width:1.5}
    .note{font:18px Arial,Helvetica,sans-serif;fill:#7c2d12}
  </style>
</defs>
<rect class="bg" width="3400" height="2140"/>
<text class="title" x="60" y="55">Profile Class Diagram</text>
<text class="subtitle" x="60" y="88">Focused view of com.oracle.database.selectai.Profile including feedback, summarize, synthetic-data, and context-aware chat sessions</text>

<!-- Profile interface -->
<g id="Profile" transform="translate(70 125)">
  <rect class="box" x="0" y="0" width="800" height="962" rx="8"/>
  <path class="header" d="M8 0 H792 Q800 0 800 8 V70 H0 V8 Q0 0 8 0 Z"/>
  <text class="name" x="400" y="31" text-anchor="middle">Profile</text>
  <text class="stereo" x="400" y="58" text-anchor="middle">&lt;&lt;interface&gt;&gt;</text>
  <line class="section" x1="0" y1="70" x2="800" y2="70"/>
  <text class="member" x="22" y="129">+ create() : boolean</text>
  <text class="member" x="22" y="185">+ drop(boolean force) : boolean</text>
  <text class="member" x="22" y="213">+ enable() : boolean</text>
  <text class="member" x="22" y="241">+ disable() : boolean</text>
  <text class="member" x="22" y="269">+ generate(String, GenerateAction) : String</text>
  <text class="member" x="22" y="297">+ generate(String, GenerateAction, ProfileAttributes) : String</text>
  <text class="member" x="22" y="325">+ generate(String, GenerateAction, GenerateParams) : String</text>
  <text class="member" x="22" y="353">+ generate(String, GenerateAction, ProfileAttributes, GenerateParams) : String</text>
  <text class="member" x="22" y="381">+ runsql(String) : String</text>
  <text class="member" x="22" y="409">+ showsql(String) : String</text>
  <text class="member" x="22" y="437">+ explainsql(String) : String</text>
  <text class="member" x="22" y="465">+ narrate(String) : String</text>
  <text class="member" x="22" y="493">+ showprompt(String) : String</text>
  <text class="member" x="22" y="521">+ chat(String) : String</text>
  <text class="member" x="22" y="549">+ chat(String, GenerateParams) : String</text>
  <text class="member" x="22" y="577">+ chatSession(Conversation) : Session</text>
  <text class="member" x="22" y="605">+ chatSession(Conversation, boolean) : Session</text>
  <text class="member" x="22" y="633">+ setAttribute(String, String) : boolean</text>
  <text class="member" x="22" y="661">+ setAttribute(String, boolean) : boolean</text>
  <text class="member" x="22" y="689">+ setAttribute(String, Integer) : boolean</text>
  <text class="member" x="22" y="717">+ setAttribute(String, Float) : boolean</text>
  <text class="member" x="22" y="745">+ setAttributes(ProfileAttributes) : boolean</text>
  <text class="member" x="22" y="773">+ feedback(Feedback) : boolean</text>
  <text class="member" x="22" y="801">+ generateSyntheticData(SyntheticDataSingleRequest) : boolean</text>
  <text class="member" x="22" y="829">+ generateSyntheticData(SyntheticDataBatchRequest) : boolean</text>
  <text class="member" x="22" y="857">+ summarize(..., SummaryParams) : String</text>
  <text class="member" x="22" y="885">+ translate(String), translate(String,String), translate(String,String,String) : String</text>
  <text class="member" x="22" y="913">+ getProfileName(), getStatus(), getDescription()</text>
  <text class="member" x="22" y="941">+ getProfileAttributes() : ProfileAttributes</text>
</g>

<!-- DefaultProfile -->
<g id="DefaultProfile" transform="translate(1120 125)">
  <rect class="box" x="0" y="0" width="830" height="650" rx="8"/>
  <path class="header" d="M8 0 H822 Q830 0 830 8 V52 H0 V8 Q0 0 8 0 Z"/>
  <text class="name" x="415" y="33" text-anchor="middle">DefaultProfile</text>
  <line class="section" x1="0" y1="52" x2="830" y2="52"/>
  <text class="small" x="22" y="83">- connectionProvider : ConnectionProvider</text>
  <text class="small" x="22" y="110">- profileName : String</text>
  <text class="small" x="22" y="137">- status : String</text>
  <text class="small" x="22" y="164">- description : String</text>
  <text class="small" x="22" y="191">- profileAttributes : ProfileAttributes</text>
  <text class="small" x="22" y="218">- profileAttributesState : Map&lt;String,String&gt;</text>
  <text class="small" x="22" y="245">- databaseBacked : boolean</text>
  <text class="small" x="22" y="272">- OBJECT_MAPPER : ObjectMapper</text>
  <line class="section" x1="0" y1="300" x2="830" y2="300"/>
  <text class="small" x="22" y="331">~ DefaultProfile(ConnectionProvider)</text>
  <text class="small" x="22" y="358">~ DefaultProfile(ConnectionProvider, String)</text>
  <text class="small" x="22" y="385">~ DefaultProfile(ConnectionProvider, String, ProfileAttributes, String, ProfileStatus)</text>
  <line class="section" x1="0" y1="400" x2="830" y2="400"/>
  <text class="small" x="22" y="411">+ feedback(Feedback) : boolean</text>
  <text class="small" x="22" y="438">+ generateSyntheticData(SyntheticDataSingleRequest) : boolean</text>
  <text class="small" x="22" y="465">+ generateSyntheticData(SyntheticDataBatchRequest) : boolean</text>
  <text class="small" x="22" y="492">+ summarize(..., SummaryParams) : String</text>
  <text class="small" x="22" y="519">+ generate(..., ProfileAttributes, GenerateParams) : String</text>
  <text class="small" x="22" y="546">+ chatSession(Conversation, boolean) : Session</text>
  <text class="small" x="22" y="573">+ create(), setAttribute(), setAttributes()</text>
  <text class="small" x="22" y="600">+ getProfileName(), getStatus(), getDescription()</text>
</g>

<!-- Session -->
<g id="Session" transform="translate(1980 820)">
  <rect class="box" x="0" y="0" width="520" height="220" rx="8"/>
  <path class="header" d="M8 0 H512 Q520 0 520 8 V70 H0 V8 Q0 0 8 0 Z"/>
  <text class="name" x="260" y="31" text-anchor="middle">Session</text>
  <text class="stereo" x="260" y="58" text-anchor="middle">&lt;&lt;interface&gt;&gt;</text>
  <line class="section" x1="0" y1="70" x2="520" y2="70"/>
  <text class="small" x="22" y="105">+ chat(String) : String</text>
  <text class="small" x="22" y="132">+ runsql(), showsql(), explainsql()</text>
  <text class="small" x="22" y="159">+ narrate(), showprompt()</text>
  <text class="small" x="22" y="186">+ close() : void</text>
</g>

<!-- ProfileAttributes -->
<g id="ProfileAttributes" transform="translate(2280 125)">
  <rect class="box" x="0" y="0" width="850" height="801" rx="8"/>
  <path class="header" d="M8 0 H842 Q850 0 850 8 V52 H0 V8 Q0 0 8 0 Z"/>
  <text class="name" x="425" y="33" text-anchor="middle">ProfileAttributes</text>
  <line class="section" x1="0" y1="52" x2="850" y2="52"/>
  <text class="small" x="22" y="83">- credentialName : String</text>
  <text class="small" x="22" y="110">- provider : String</text>
  <text class="small" x="22" y="137">- providerEndpoint : String</text>
  <text class="small" x="22" y="164">- region : String</text>
  <text class="small" x="22" y="191">- model : String</text>
  <text class="small" x="22" y="218">- embeddingModel : String</text>
  <text class="small" x="22" y="245">- objectList : String</text>
  <text class="small" x="22" y="272">- objectListMode : String</text>
  <text class="small" x="22" y="299">- vectorIndexName : String</text>
  <text class="small" x="22" y="326">- temperature : Double</text>
  <text class="small" x="22" y="353">- maxTokens : Integer</text>
  <text class="small" x="22" y="380">- stopTokens : List&lt;String&gt;</text>
  <text class="small" x="22" y="407">- comments, constraints, conversation : Boolean</text>
  <text class="small" x="22" y="434">- azureDeploymentName : String</text>
  <text class="small" x="22" y="461">- azureEmbeddingDeploymentName : String</text>
  <text class="small" x="22" y="488">- azureResourceName : String</text>
  <text class="small" x="22" y="515">- ociApiformat, ociCompartmentId : String</text>
  <text class="small" x="22" y="542">- ociEndpointId, ociRuntimetype : String</text>
  <text class="small" x="22" y="569">- sourceLanguage, targetLanguage : String</text>
  <text class="small" x="22" y="596">- additionalInstructions : String</text>
  <text class="small" x="22" y="623">- role : String</text>
  <text class="small" x="22" y="650">- customAttributes : Map&lt;String,String&gt;</text>
  <line class="section" x1="0" y1="676" x2="850" y2="676"/>
  <text class="small" x="22" y="707">+ builder() : Builder</text>
  <text class="small" x="22" y="734">+ toJson() : String</text>
  <text class="small" x="22" y="761">+ toAttributeMap() : Map&lt;String,String&gt;</text>
  <text class="small" x="22" y="788">+ fromAttributeMap(Map&lt;String,String&gt;) : ProfileAttributes</text>
</g>

<!-- Feedback -->
<g id="Feedback" transform="translate(70 1120)">
  <rect class="box" x="0" y="0" width="760" height="470" rx="8"/>
  <path class="header" d="M8 0 H752 Q760 0 760 8 V52 H0 V8 Q0 0 8 0 Z"/>
  <text class="name" x="380" y="33" text-anchor="middle">Feedback</text>
  <line class="section" x1="0" y1="52" x2="760" y2="52"/>
  <text class="small" x="22" y="83">- sqlId : String</text>
  <text class="small" x="22" y="110">- sqlText : String</text>
  <text class="small" x="22" y="137">- feedbackType : FeedbackType</text>
  <text class="small" x="22" y="164">- response : String</text>
  <text class="small" x="22" y="191">- feedbackContent : String</text>
  <text class="small" x="22" y="218">- operation : Operation</text>
  <line class="section" x1="0" y1="243" x2="760" y2="243"/>
  <text class="small" x="22" y="274">+ builder() : Builder</text>
  <text class="small" x="22" y="301">+ getSqlId(), getSqlText() : String</text>
  <text class="small" x="22" y="328">+ getFeedbackType() : FeedbackType</text>
  <text class="small" x="22" y="355">+ getFeedbackTypeValue() : String</text>
  <text class="small" x="22" y="382">+ getResponse(), getFeedbackContent() : String</text>
  <text class="small" x="22" y="409">+ getOperation() : Operation</text>
  <text class="small" x="22" y="444">FeedbackType: POSITIVE, NEGATIVE    Operation: ADD, DELETE</text>
</g>

<!-- GenerateAction -->
<g id="GenerateAction" transform="translate(70 1700)">
  <rect class="box" x="0" y="0" width="540" height="300" rx="8"/>
  <path class="header" d="M8 0 H532 Q540 0 540 8 V70 H0 V8 Q0 0 8 0 Z"/>
  <text class="name" x="270" y="31" text-anchor="middle">GenerateAction</text>
  <text class="stereo" x="270" y="58" text-anchor="middle">&lt;&lt;enum&gt;&gt;</text>
  <line class="section" x1="0" y1="70" x2="540" y2="70"/>
  <text class="member" x="22" y="105">runsql, showsql, explainsql, narrate</text>
  <text class="member" x="22" y="135">summarize, translate, chat, embedding</text>
</g>

<g id="ProfileStatus" transform="translate(655 1700)">
  <rect class="box" x="0" y="0" width="310" height="165" rx="8"/>
  <path class="header" d="M8 0 H302 Q310 0 310 8 V70 H0 V8 Q0 0 8 0 Z"/>
  <text class="name" x="155" y="31" text-anchor="middle">ProfileStatus</text>
  <text class="stereo" x="155" y="58" text-anchor="middle">&lt;&lt;enum&gt;&gt;</text>
  <line class="section" x1="0" y1="70" x2="310" y2="70"/>
  <text class="member" x="22" y="108">ENABLED</text>
  <text class="member" x="22" y="135">DISABLED</text>
</g>

<g id="GenerateParams" transform="translate(655 1890)">
  <rect class="box" x="0" y="0" width="330" height="180" rx="8"/>
  <path class="header" d="M8 0 H322 Q330 0 330 8 V52 H0 V8 Q0 0 8 0 Z"/>
  <text class="name" x="165" y="33" text-anchor="middle">GenerateParams</text>
  <line class="section" x1="0" y1="52" x2="330" y2="52"/>
  <text class="small" x="22" y="83">- conversationId : String</text>
  <line class="section" x1="0" y1="108" x2="330" y2="108"/>
  <text class="small" x="22" y="139">+ builder() : Builder</text>
  <text class="small" x="22" y="166">+ toJson() : String</text>
</g>

<!-- Synthetic data request models -->
<g id="SyntheticDataSingleRequest" transform="translate(1000 1080)">
  <rect class="box" x="0" y="0" width="760" height="420" rx="8"/>
  <path class="header" d="M8 0 H752 Q760 0 760 8 V52 H0 V8 Q0 0 8 0 Z"/>
  <text class="name" x="380" y="33" text-anchor="middle">SyntheticDataSingleRequest</text>
  <line class="section" x1="0" y1="52" x2="760" y2="52"/>
  <text class="small" x="22" y="83">- objectName : String</text>
  <text class="small" x="22" y="110">- ownerName : String</text>
  <text class="small" x="22" y="137">- recordCount : Integer</text>
  <text class="small" x="22" y="164">- userPrompt : String</text>
  <text class="small" x="22" y="191">- params : SyntheticDataParams</text>
  <line class="section" x1="0" y1="216" x2="760" y2="216"/>
  <text class="small" x="22" y="247">+ builder(String objectName) : Builder</text>
  <text class="small" x="22" y="274">+ getObjectName(), getOwnerName() : String</text>
  <text class="small" x="22" y="301">+ getRecordCount() : Integer</text>
  <text class="small" x="22" y="328">+ getUserPrompt() : String</text>
  <text class="small" x="22" y="355">+ getParams() : SyntheticDataParams</text>
  <text class="small" x="22" y="382">+ getParamsJson() : String</text>
</g>

<g id="SyntheticDataBatchRequest" transform="translate(1000 1620)">
  <rect class="box" x="0" y="0" width="760" height="340" rx="8"/>
  <path class="header" d="M8 0 H752 Q760 0 760 8 V52 H0 V8 Q0 0 8 0 Z"/>
  <text class="name" x="380" y="33" text-anchor="middle">SyntheticDataBatchRequest</text>
  <line class="section" x1="0" y1="52" x2="760" y2="52"/>
  <text class="small" x="22" y="83">- objectList : List&lt;SyntheticDataObjectList&gt;</text>
  <text class="small" x="22" y="110">- params : SyntheticDataParams</text>
  <line class="section" x1="0" y1="135" x2="760" y2="135"/>
  <text class="small" x="22" y="166">+ builder() : Builder</text>
  <text class="small" x="22" y="193">+ getObjectList() : List&lt;SyntheticDataObjectList&gt;</text>
  <text class="small" x="22" y="220">+ getObjectListJson() : String</text>
  <text class="small" x="22" y="247">+ getParamsJson() : String</text>
</g>

<g id="SyntheticDataParams" transform="translate(1900 1080)">
  <rect class="box" x="0" y="0" width="560" height="330" rx="8"/>
  <path class="header" d="M8 0 H552 Q560 0 560 8 V52 H0 V8 Q0 0 8 0 Z"/>
  <text class="name" x="280" y="33" text-anchor="middle">SyntheticDataParams</text>
  <line class="section" x1="0" y1="52" x2="560" y2="52"/>
  <text class="small" x="22" y="83">- sampleRows : Integer</text>
  <text class="small" x="22" y="110">- tableStatistics : Boolean</text>
  <text class="small" x="22" y="137">- priority : String</text>
  <text class="small" x="22" y="164">- comments : Boolean</text>
  <line class="section" x1="0" y1="189" x2="560" y2="189"/>
  <text class="small" x="22" y="220">+ builder() : Builder</text>
  <text class="small" x="22" y="247">+ toJson() : String</text>
  <text class="small" x="22" y="274">+ getSampleRows(), getPriority()</text>
  <text class="small" x="22" y="301">+ getTableStatistics(), getComments()</text>
</g>

<g id="SyntheticDataObjectList" transform="translate(1900 1620)">
  <rect class="box" x="0" y="0" width="640" height="380" rx="8"/>
  <path class="header" d="M8 0 H632 Q640 0 640 8 V52 H0 V8 Q0 0 8 0 Z"/>
  <text class="name" x="320" y="33" text-anchor="middle">SyntheticDataObjectList</text>
  <line class="section" x1="0" y1="52" x2="640" y2="52"/>
  <text class="small" x="22" y="83">- owner : String</text>
  <text class="small" x="22" y="110">- name : String</text>
  <text class="small" x="22" y="137">- recordCount : Integer</text>
  <text class="small" x="22" y="164">- recordCountPercentage : Integer</text>
  <text class="small" x="22" y="191">- userPrompt : String</text>
  <line class="section" x1="0" y1="216" x2="640" y2="216"/>
  <text class="small" x="22" y="247">+ builder(String owner, String name) : Builder</text>
  <text class="small" x="22" y="274">+ getOwner(), getName() : String</text>
  <text class="small" x="22" y="301">+ getRecordCount() : Integer</text>
  <text class="small" x="22" y="328">+ getRecordCountPercentage() : Integer</text>
  <text class="small" x="22" y="355">+ getUserPrompt() : String</text>
</g>

<!-- Supporting implementation classes -->
<g id="ExistingProfileMetadata" transform="translate(1120 820)">
  <rect class="box" x="0" y="0" width="830" height="180" rx="8"/>
  <path class="header" d="M8 0 H822 Q830 0 830 8 V52 H0 V8 Q0 0 8 0 Z"/>
  <text class="name" x="415" y="33" text-anchor="middle">ExistingProfileMetadata</text>
  <line class="section" x1="0" y1="52" x2="830" y2="52"/>
  <text class="small" x="22" y="83">- profileName : String</text>
  <text class="small" x="22" y="110">- status : String</text>
  <text class="small" x="22" y="137">- description : String</text>
  <text class="small" x="22" y="164">+ getProfileName(), getStatus(), getDescription() : String</text>
</g>

<g id="DbConnection" transform="translate(2580 1010)">
  <rect class="box" x="0" y="0" width="530" height="170" rx="8"/>
  <path class="header" d="M8 0 H522 Q530 0 530 8 V70 H0 V8 Q0 0 8 0 Z"/>
  <text class="name" x="265" y="31" text-anchor="middle">ConnectionProvider</text>
  <text class="stereo" x="265" y="58" text-anchor="middle">&lt;&lt;interface&gt;&gt;</text>
  <line class="section" x1="0" y1="70" x2="530" y2="70"/>
  <text class="member" x="22" y="108">+ withConnection(callback) : T</text>
</g>

<g id="ProfileAttributeUtils" transform="translate(2580 1240)">
  <rect class="box" x="0" y="0" width="720" height="170" rx="8"/>
  <path class="header" d="M8 0 H712 Q720 0 720 8 V70 H0 V8 Q0 0 8 0 Z"/>
  <text class="name" x="360" y="31" text-anchor="middle">ProfileAttributeUtils</text>
  <text class="stereo" x="360" y="58" text-anchor="middle">&lt;&lt;utility&gt;&gt;</text>
  <line class="section" x1="0" y1="70" x2="720" y2="70"/>
  <text class="small" x="22" y="108">+ fetchProfileAttributes(Connection, String) : ProfileAttributes</text>
</g>

<g id="Sql" transform="translate(2580 1470)">
  <rect class="box" x="0" y="0" width="760" height="390" rx="8"/>
  <path class="header" d="M8 0 H752 Q760 0 760 8 V70 H0 V8 Q0 0 8 0 Z"/>
  <text class="name" x="380" y="31" text-anchor="middle">Sql</text>
  <text class="stereo" x="380" y="58" text-anchor="middle">&lt;&lt;enum&gt;&gt;</text>
  <line class="section" x1="0" y1="70" x2="760" y2="70"/>
  <text class="small" x="22" y="102">LIST_PROFILES, GET_PROFILE, CREATE_PROFILE</text>
  <text class="small" x="22" y="129">DROP_PROFILE, ENABLE_PROFILE, DISABLE_PROFILE</text>
  <text class="small" x="22" y="156">GENERATE, SET_ATTRIBUTE, SET_ATTRIBUTES</text>
  <text class="small" x="22" y="183">SUMMARIZE, SUMMARIZE_LOCATION, TRANSLATE</text>
  <text class="small" x="22" y="210">FEEDBACK_SQL_ID, FEEDBACK_SQL_TEXT</text>
  <text class="small" x="22" y="237">GENERATE_SYNTHETIC_DATA_SINGLE</text>
  <text class="small" x="22" y="264">GENERATE_SYNTHETIC_DATA_MULTI</text>
  <text class="small" x="22" y="291">ENABLE_DATA_ACCESS, DISABLE_DATA_ACCESS</text>
</g>

<g id="SelectAIException" transform="translate(2580 1950)">
  <rect class="box" x="0" y="0" width="520" height="120" rx="8"/>
  <path class="header" d="M8 0 H512 Q520 0 520 8 V52 H0 V8 Q0 0 8 0 Z"/>
  <text class="name" x="260" y="33" text-anchor="middle">SelectAIException</text>
  <line class="section" x1="0" y1="52" x2="520" y2="52"/>
  <text class="small" x="22" y="86">database operation failures</text>
</g>

<!-- Note -->
<g id="ProfileScopeNote">
  <rect class="noteBox" x="2400" y="24" width="730" height="78" rx="8"/>
  <text class="note" x="2424" y="55">Profile supplies the DBMS_CLOUD_AI profile_name.</text>
  <text class="note" x="2424" y="82">Feedback and synthetic-data request models do not carry profileName.</text>
</g>

<!-- Relationships: interface and implementation -->
<path class="impl" d="M1120 250 H870"/>
<rect class="labelBox" x="920" y="220" width="150" height="30" rx="5"/>
<text class="label" x="995" y="241" text-anchor="middle">implements</text>

<path class="assoc" d="M1950 280 H2280"/>
<rect class="labelBox" x="2040" y="250" width="150" height="30" rx="5"/>
<text class="label" x="2115" y="271" text-anchor="middle">attributes</text>

<path class="comp" d="M1535 775 V820"/>
<rect class="labelBox" x="1570" y="785" width="120" height="30" rx="5"/>
<text class="label" x="1630" y="806" text-anchor="middle">metadata</text>

<path class="assoc" d="M1950 510 H2060 V990 H2845 V1010"/>
<rect class="labelBox" x="2495" y="960" width="130" height="30" rx="5"/>
<text class="label" x="2560" y="981" text-anchor="middle">provider</text>

<path class="dep" d="M1950 600 H1965 V1060 H2550 V1325 H2580"/>
<rect class="labelBox" x="2488" y="1296" width="116" height="30" rx="5"/>
<text class="label" x="2546" y="1317" text-anchor="middle">loads</text>

<path class="dep" d="M1950 640 H1965 V1060 H2550 V1665 H2580"/>
<rect class="labelBox" x="2488" y="1636" width="104" height="30" rx="5"/>
<text class="label" x="2540" y="1657" text-anchor="middle">uses SQL</text>

<path class="dep" d="M1950 690 H1965 V1060 H2550 V2010 H2580"/>
<rect class="labelBox" x="2488" y="1980" width="100" height="30" rx="5"/>
<text class="label" x="2538" y="2001" text-anchor="middle">throws</text>

<!-- Relationships: Profile dependencies -->
<path class="dep" d="M600 125 V90 H2280 V180"/>
<rect class="labelBox" x="1380" y="58" width="190" height="30" rx="5"/>
<text class="label" x="1475" y="79" text-anchor="middle">uses attributes</text>

<path class="dep" d="M480 975 V1120"/>
<rect class="labelBox" x="505" y="1028" width="130" height="30" rx="5"/>
<text class="label" x="570" y="1049" text-anchor="middle">feedback</text>

<path class="dep" d="M70 420 H35 V1680 H270 V1700"/>
<rect class="labelBox" x="62" y="1645" width="142" height="30" rx="5"/>
<text class="label" x="133" y="1666" text-anchor="middle">actions</text>

<path class="dep" d="M870 620 H930 V1138 H1000"/>
<rect class="labelBox" x="900" y="1108" width="128" height="30" rx="5"/>
<text class="label" x="964" y="1129" text-anchor="middle">single request</text>

<path class="dep" d="M870 660 H910 V1680 H1000"/>
<rect class="labelBox" x="887" y="1648" width="128" height="30" rx="5"/>
<text class="label" x="951" y="1669" text-anchor="middle">batch request</text>

<path class="dep" d="M870 850 H950 V1055 H1980"/>
<rect class="labelBox" x="1260" y="1025" width="138" height="30" rx="5"/>
<text class="label" x="1329" y="1046" text-anchor="middle">chat session</text>

<path class="dep" d="M1980 910 H1970 V795 H1820 V775"/>
<rect class="labelBox" x="1840" y="802" width="112" height="30" rx="5"/>
<text class="label" x="1896" y="823" text-anchor="middle">delegates</text>

<!-- Relationships: synthetic request internals -->
<path class="assoc" d="M1760 1248 H1900"/>
<rect class="labelBox" x="1784" y="1218" width="92" height="30" rx="5"/>
<text class="label" x="1830" y="1239" text-anchor="middle">params</text>

<path class="assoc" d="M1760 1695 H1900"/>
<rect class="labelBox" x="1784" y="1665" width="102" height="30" rx="5"/>
<text class="label" x="1835" y="1686" text-anchor="middle">objects</text>

<path class="assoc" d="M1760 1775 H1840 V1325 H1900"/>
<rect class="labelBox" x="1791" y="1438" width="92" height="30" rx="5"/>
<text class="label" x="1837" y="1459" text-anchor="middle">params</text>
</svg>
